<mxfile host="app.diagrams.net" modified="2024-03-08T06:58:50.398Z" agent="Mozilla/5.0 (Windows NT 10.0; Win64; x64) AppleWebKit/537.36 (KHTML, like Gecko) Chrome/122.0.0.0 Safari/537.36" version="24.0.2" etag="zCh13ggdTHjoC6AhseZS" type="github">
  <diagram name="第 1 页" id="3RnXKQRBD4h4_Rx_I8--">
    <mxGraphModel>
      <root>
        <mxCell id="0" />
        <mxCell id="1" parent="0" />
      </root>
    </mxGraphModel>
  </diagram>
</mxfile>
